<svg xmlns="http://www.w3.org/2000/svg" viewBox="0 0 64 64" role="img" aria-label="BriannaB logo">
  <defs>
    <linearGradient id="bg" x1="8" y1="8" x2="56" y2="56" gradientUnits="userSpaceOnUse">
      <stop stop-color="#f2558f"/>
      <stop offset="0.58" stop-color="#ff7f73"/>
      <stop offset="1" stop-color="#ffe46f"/>
    </linearGradient>
    <linearGradient id="shine" x1="15" y1="10" x2="50" y2="54" gradientUnits="userSpaceOnUse">
      <stop stop-color="#fff8fb"/>
      <stop offset="1" stop-color="#ffe7f0"/>
    </linearGradient>
  </defs>
  <rect width="64" height="64" rx="18" fill="#181121"/>
  <path d="M7 42c8-17 17-27 31-30 9-2 16 1 20 8-5 0-9 2-13 5 4 5 5 11 2 17-4 8-13 12-24 10-7-1-12-4-16-10Z" fill="url(#bg)" opacity="0.92"/>
  <circle cx="47" cy="17" r="5" fill="#ffe46f"/>
  <text x="31.5" y="41.5" text-anchor="middle" font-family="Arial, Helvetica, sans-serif" font-size="23" font-weight="900" fill="url(#shine)" letter-spacing="-2">BB</text>
  <path d="M16 48c8 5 24 6 34-5" fill="none" stroke="#ffe46f" stroke-width="3" stroke-linecap="round" opacity="0.85"/>
</svg>
